<svg id="Layer_1" data-name="Layer 1" xmlns="http://www.w3.org/2000/svg" viewBox="0 0 20 20"><defs><style>.cls-1,.cls-2{fill:#5a8bc1;}.cls-2{fill-rule:evenodd;}</style></defs><title>icon</title><path class="cls-1" d="M13.83,0H6.17a2,2,0,0,0-2,2V18a2,2,0,0,0,2,2h7.66a2,2,0,0,0,2-2V2a2,2,0,0,0-2-2M8.58,1.15h2.85a0.19,0.19,0,0,1,.18.18,0.19,0.19,0,0,1-.18.18H8.58A0.19,0.19,0,0,1,8.4,1.33a0.19,0.19,0,0,1,.18-0.18m2.54,17.43a0.2,0.2,0,0,1-.22.18H9.06a0.19,0.19,0,0,1-.18-0.18V17.74a0.24,0.24,0,0,1,.18-0.22h1.83a0.24,0.24,0,0,1,.22.22v0.84Zm3.56-2.48a0.21,0.21,0,0,1-.22.22H5.55a0.21,0.21,0,0,1-.22-0.22V2.83a0.25,0.25,0,0,1,.22-0.27h8.91a0.25,0.25,0,0,1,.22.27V16.11Z"/><path class="cls-2" d="M13.33,10.43a0.4,0.4,0,0,1-.39.41H7.05a0.4,0.4,0,0,1-.39-0.41V8.74a0.4,0.4,0,0,1,.39-0.41h5.9a0.4,0.4,0,0,1,.39.41v1.69Z"/><path class="cls-2" d="M13.33,7a0.42,0.42,0,0,1-.39.45H7.05A0.42,0.42,0,0,1,6.67,7V4.62a0.42,0.42,0,0,1,.39-0.45h5.9a0.42,0.42,0,0,1,.39.45V7Z"/></svg>
